<mxfile host="app.diagrams.net" modified="2023-03-22T13:56:11.413Z" agent="5.0 (Macintosh; Intel Mac OS X 10_15_7) AppleWebKit/537.36 (KHTML, like Gecko) Chrome/111.0.0.0 Safari/537.36" etag="MScRGnl2ccdspA2pvT-b" version="21.0.10" type="github">
  <diagram name="Page-1" id="rLabhU69Jqzna2OfqYEQ">
    <mxGraphModel dx="3774" dy="2313" grid="1" gridSize="10" guides="1" tooltips="1" connect="1" arrows="1" fold="1" page="1" pageScale="1" pageWidth="850" pageHeight="1100" math="0" shadow="0">
      <root>
        <mxCell id="0" />
        <mxCell id="1" parent="0" />
        <mxCell id="dcLgpgKGVdjkDSoilF9P-11" style="edgeStyle=none;rounded=0;orthogonalLoop=1;jettySize=auto;html=1;entryX=0;entryY=0;entryDx=145;entryDy=230;entryPerimeter=0;dashed=1;strokeColor=#003300;" edge="1" parent="1" source="dcLgpgKGVdjkDSoilF9P-6" target="dcLgpgKGVdjkDSoilF9P-10">
          <mxGeometry relative="1" as="geometry" />
        </mxCell>
        <mxCell id="dcLgpgKGVdjkDSoilF9P-6" value="" style="ellipse;whiteSpace=wrap;html=1;aspect=fixed;dashed=1;strokeColor=#1A3300;" vertex="1" parent="1">
          <mxGeometry x="1470" y="-268" width="320" height="320" as="geometry" />
        </mxCell>
        <mxCell id="xL3kk872n1nq1PRhkaxr-74" value="" style="endArrow=none;dashed=1;html=1;dashPattern=1 3;strokeWidth=2;rounded=0;strokeColor=#660000;" parent="1" edge="1">
          <mxGeometry width="50" height="50" relative="1" as="geometry">
            <mxPoint x="740" y="1230" as="sourcePoint" />
            <mxPoint x="740" y="20" as="targetPoint" />
          </mxGeometry>
        </mxCell>
        <mxCell id="dcLgpgKGVdjkDSoilF9P-5" style="edgeStyle=none;rounded=0;orthogonalLoop=1;jettySize=auto;html=1;entryX=0.5;entryY=1;entryDx=0;entryDy=0;dashed=1;strokeColor=#660000;" edge="1" parent="1" source="xL3kk872n1nq1PRhkaxr-73" target="xL3kk872n1nq1PRhkaxr-70">
          <mxGeometry relative="1" as="geometry" />
        </mxCell>
        <mxCell id="xL3kk872n1nq1PRhkaxr-73" value="" style="rounded=0;whiteSpace=wrap;html=1;dashed=1;strokeColor=#006600;" parent="1" vertex="1">
          <mxGeometry x="520" y="130" width="730" height="300" as="geometry" />
        </mxCell>
        <mxCell id="xL3kk872n1nq1PRhkaxr-44" value="Jenkins Master&lt;br&gt;(Team X)" style="rounded=1;whiteSpace=wrap;html=1;strokeColor=#E6E6E6;fontColor=#666666;" parent="1" vertex="1">
          <mxGeometry x="548.87" y="1037" width="120" height="60" as="geometry" />
        </mxCell>
        <mxCell id="y-JFG-o3m0YFWxHJN8Iu-92" style="edgeStyle=none;rounded=0;orthogonalLoop=1;jettySize=auto;html=1;entryX=0;entryY=0.5;entryDx=0;entryDy=0;fontSize=24;fontColor=#006600;exitX=1;exitY=0.5;exitDx=0;exitDy=0;startArrow=classic;startFill=1;strokeWidth=5;strokeColor=#006600;" parent="1" source="y-JFG-o3m0YFWxHJN8Iu-2" target="y-JFG-o3m0YFWxHJN8Iu-3" edge="1">
          <mxGeometry relative="1" as="geometry" />
        </mxCell>
        <mxCell id="y-JFG-o3m0YFWxHJN8Iu-93" style="edgeStyle=none;rounded=0;orthogonalLoop=1;jettySize=auto;html=1;entryX=0;entryY=0.5;entryDx=0;entryDy=0;fontSize=24;fontColor=#006600;startArrow=classic;startFill=1;strokeColor=#E6E6E6;" parent="1" source="y-JFG-o3m0YFWxHJN8Iu-2" target="xL3kk872n1nq1PRhkaxr-40" edge="1">
          <mxGeometry relative="1" as="geometry">
            <mxPoint x="560" y="670" as="targetPoint" />
          </mxGeometry>
        </mxCell>
        <mxCell id="y-JFG-o3m0YFWxHJN8Iu-94" style="edgeStyle=none;rounded=0;orthogonalLoop=1;jettySize=auto;html=1;entryX=0;entryY=0.5;entryDx=0;entryDy=0;fontSize=24;fontColor=#006600;exitX=1.025;exitY=0.633;exitDx=0;exitDy=0;exitPerimeter=0;startArrow=classic;startFill=1;strokeColor=#E6E6E6;" parent="1" source="y-JFG-o3m0YFWxHJN8Iu-2" target="xL3kk872n1nq1PRhkaxr-44" edge="1">
          <mxGeometry relative="1" as="geometry">
            <mxPoint x="550" y="1070" as="targetPoint" />
          </mxGeometry>
        </mxCell>
        <mxCell id="y-JFG-o3m0YFWxHJN8Iu-2" value="Homer 3.0" style="rounded=1;whiteSpace=wrap;html=1;fillColor=#e1d5e7;strokeColor=#9673a6;fontSize=23;fontStyle=1" parent="1" vertex="1">
          <mxGeometry x="-10" y="606.5" width="240" height="135" as="geometry" />
        </mxCell>
        <mxCell id="y-JFG-o3m0YFWxHJN8Iu-10" value="" style="ellipse;shape=cloud;whiteSpace=wrap;html=1;fillColor=#fff2cc;strokeColor=#d6b656;" parent="1" vertex="1">
          <mxGeometry x="1404" y="534" width="470" height="270" as="geometry" />
        </mxCell>
        <mxCell id="y-JFG-o3m0YFWxHJN8Iu-18" value="" style="ellipse;shape=cloud;whiteSpace=wrap;html=1;fillColor=#d5e8d4;strokeColor=#82b366;" parent="1" vertex="1">
          <mxGeometry x="1404" y="143" width="470" height="270" as="geometry" />
        </mxCell>
        <mxCell id="y-JFG-o3m0YFWxHJN8Iu-26" value="" style="ellipse;shape=cloud;whiteSpace=wrap;html=1;fillColor=#f8cecc;strokeColor=#b85450;" parent="1" vertex="1">
          <mxGeometry x="1404" y="931" width="470" height="270" as="geometry" />
        </mxCell>
        <mxCell id="y-JFG-o3m0YFWxHJN8Iu-20" value="" style="sketch=0;points=[[0,0,0],[0.25,0,0],[0.5,0,0],[0.75,0,0],[1,0,0],[0,1,0],[0.25,1,0],[0.5,1,0],[0.75,1,0],[1,1,0],[0,0.25,0],[0,0.5,0],[0,0.75,0],[1,0.25,0],[1,0.5,0],[1,0.75,0]];outlineConnect=0;fontColor=#232F3E;gradientColor=#F78E04;gradientDirection=north;fillColor=#D05C17;strokeColor=#ffffff;dashed=0;verticalLabelPosition=bottom;verticalAlign=top;align=center;html=1;fontSize=12;fontStyle=0;aspect=fixed;shape=mxgraph.aws4.resourceIcon;resIcon=mxgraph.aws4.ecs;" parent="1" vertex="1">
          <mxGeometry x="1525" y="256.75" width="48" height="48" as="geometry" />
        </mxCell>
        <mxCell id="y-JFG-o3m0YFWxHJN8Iu-21" value="" style="outlineConnect=0;dashed=0;verticalLabelPosition=bottom;verticalAlign=top;align=center;html=1;shape=mxgraph.aws3.bucket_with_objects;fillColor=#E05243;gradientColor=none;" parent="1" vertex="1">
          <mxGeometry x="1745" y="255" width="50" height="51.5" as="geometry" />
        </mxCell>
        <mxCell id="y-JFG-o3m0YFWxHJN8Iu-22" value="" style="outlineConnect=0;dashed=0;verticalLabelPosition=bottom;verticalAlign=top;align=center;html=1;shape=mxgraph.aws3.rds;fillColor=#2E73B8;gradientColor=none;" parent="1" vertex="1">
          <mxGeometry x="1665" y="185" width="50" height="61" as="geometry" />
        </mxCell>
        <mxCell id="y-JFG-o3m0YFWxHJN8Iu-23" value="" style="outlineConnect=0;dashed=0;verticalLabelPosition=bottom;verticalAlign=top;align=center;html=1;shape=mxgraph.aws3.ec2;fillColor=#F58534;gradientColor=none;" parent="1" vertex="1">
          <mxGeometry x="1555" y="162" width="60" height="63" as="geometry" />
        </mxCell>
        <mxCell id="y-JFG-o3m0YFWxHJN8Iu-24" value="AWS Cloud" style="sketch=0;outlineConnect=0;fontColor=#232F3E;gradientColor=none;strokeColor=#232F3E;fillColor=#ffffff;dashed=0;verticalLabelPosition=bottom;verticalAlign=top;align=center;html=1;fontSize=12;fontStyle=0;aspect=fixed;shape=mxgraph.aws4.resourceIcon;resIcon=mxgraph.aws4.aws_cloud;" parent="1" vertex="1">
          <mxGeometry x="1680" y="320" width="60" height="60" as="geometry" />
        </mxCell>
        <mxCell id="y-JFG-o3m0YFWxHJN8Iu-34" value="STG" style="text;html=1;align=center;verticalAlign=middle;resizable=0;points=[];autosize=1;strokeColor=none;fillColor=none;fontSize=24;fontStyle=1;fontColor=#006600;" parent="1" vertex="1">
          <mxGeometry x="1615" y="267" width="70" height="40" as="geometry" />
        </mxCell>
        <mxCell id="y-JFG-o3m0YFWxHJN8Iu-35" value="SBX" style="text;html=1;align=center;verticalAlign=middle;resizable=0;points=[];autosize=1;strokeColor=none;fillColor=none;fontSize=24;fontStyle=1;fontColor=#006600;" parent="1" vertex="1">
          <mxGeometry x="1615" y="679.75" width="70" height="40" as="geometry" />
        </mxCell>
        <mxCell id="y-JFG-o3m0YFWxHJN8Iu-36" value="PROD" style="text;html=1;align=center;verticalAlign=middle;resizable=0;points=[];autosize=1;strokeColor=none;fillColor=none;fontSize=24;fontStyle=1;fontColor=#006600;" parent="1" vertex="1">
          <mxGeometry x="1605" y="1097" width="90" height="40" as="geometry" />
        </mxCell>
        <mxCell id="y-JFG-o3m0YFWxHJN8Iu-12" value="" style="sketch=0;points=[[0,0,0],[0.25,0,0],[0.5,0,0],[0.75,0,0],[1,0,0],[0,1,0],[0.25,1,0],[0.5,1,0],[0.75,1,0],[1,1,0],[0,0.25,0],[0,0.5,0],[0,0.75,0],[1,0.25,0],[1,0.5,0],[1,0.75,0]];outlineConnect=0;fontColor=#232F3E;gradientColor=#F78E04;gradientDirection=north;fillColor=#D05C17;strokeColor=#ffffff;dashed=0;verticalLabelPosition=bottom;verticalAlign=top;align=center;html=1;fontSize=12;fontStyle=0;aspect=fixed;shape=mxgraph.aws4.resourceIcon;resIcon=mxgraph.aws4.ecs;" parent="1" vertex="1">
          <mxGeometry x="1525" y="671.75" width="48" height="48" as="geometry" />
        </mxCell>
        <mxCell id="y-JFG-o3m0YFWxHJN8Iu-13" value="" style="outlineConnect=0;dashed=0;verticalLabelPosition=bottom;verticalAlign=top;align=center;html=1;shape=mxgraph.aws3.bucket_with_objects;fillColor=#E05243;gradientColor=none;" parent="1" vertex="1">
          <mxGeometry x="1745" y="670" width="50" height="51.5" as="geometry" />
        </mxCell>
        <mxCell id="y-JFG-o3m0YFWxHJN8Iu-14" value="" style="outlineConnect=0;dashed=0;verticalLabelPosition=bottom;verticalAlign=top;align=center;html=1;shape=mxgraph.aws3.rds;fillColor=#2E73B8;gradientColor=none;" parent="1" vertex="1">
          <mxGeometry x="1665" y="600" width="50" height="61" as="geometry" />
        </mxCell>
        <mxCell id="y-JFG-o3m0YFWxHJN8Iu-15" value="" style="outlineConnect=0;dashed=0;verticalLabelPosition=bottom;verticalAlign=top;align=center;html=1;shape=mxgraph.aws3.ec2;fillColor=#F58534;gradientColor=none;" parent="1" vertex="1">
          <mxGeometry x="1555" y="577" width="60" height="63" as="geometry" />
        </mxCell>
        <mxCell id="y-JFG-o3m0YFWxHJN8Iu-16" value="AWS Cloud" style="sketch=0;outlineConnect=0;fontColor=#232F3E;gradientColor=none;strokeColor=#232F3E;fillColor=#ffffff;dashed=0;verticalLabelPosition=bottom;verticalAlign=top;align=center;html=1;fontSize=12;fontStyle=0;aspect=fixed;shape=mxgraph.aws4.resourceIcon;resIcon=mxgraph.aws4.aws_cloud;" parent="1" vertex="1">
          <mxGeometry x="1680" y="735" width="60" height="60" as="geometry" />
        </mxCell>
        <mxCell id="y-JFG-o3m0YFWxHJN8Iu-28" value="" style="sketch=0;points=[[0,0,0],[0.25,0,0],[0.5,0,0],[0.75,0,0],[1,0,0],[0,1,0],[0.25,1,0],[0.5,1,0],[0.75,1,0],[1,1,0],[0,0.25,0],[0,0.5,0],[0,0.75,0],[1,0.25,0],[1,0.5,0],[1,0.75,0]];outlineConnect=0;fontColor=#232F3E;gradientColor=#F78E04;gradientDirection=north;fillColor=#D05C17;strokeColor=#ffffff;dashed=0;verticalLabelPosition=bottom;verticalAlign=top;align=center;html=1;fontSize=12;fontStyle=0;aspect=fixed;shape=mxgraph.aws4.resourceIcon;resIcon=mxgraph.aws4.ecs;" parent="1" vertex="1">
          <mxGeometry x="1525" y="1081.75" width="48" height="48" as="geometry" />
        </mxCell>
        <mxCell id="y-JFG-o3m0YFWxHJN8Iu-29" value="" style="outlineConnect=0;dashed=0;verticalLabelPosition=bottom;verticalAlign=top;align=center;html=1;shape=mxgraph.aws3.bucket_with_objects;fillColor=#E05243;gradientColor=none;" parent="1" vertex="1">
          <mxGeometry x="1745" y="1080" width="50" height="51.5" as="geometry" />
        </mxCell>
        <mxCell id="y-JFG-o3m0YFWxHJN8Iu-30" value="" style="outlineConnect=0;dashed=0;verticalLabelPosition=bottom;verticalAlign=top;align=center;html=1;shape=mxgraph.aws3.rds;fillColor=#2E73B8;gradientColor=none;" parent="1" vertex="1">
          <mxGeometry x="1665" y="1010" width="50" height="61" as="geometry" />
        </mxCell>
        <mxCell id="y-JFG-o3m0YFWxHJN8Iu-31" value="" style="outlineConnect=0;dashed=0;verticalLabelPosition=bottom;verticalAlign=top;align=center;html=1;shape=mxgraph.aws3.ec2;fillColor=#F58534;gradientColor=none;" parent="1" vertex="1">
          <mxGeometry x="1555" y="987" width="60" height="63" as="geometry" />
        </mxCell>
        <mxCell id="y-JFG-o3m0YFWxHJN8Iu-32" value="AWS Cloud" style="sketch=0;outlineConnect=0;fontColor=#232F3E;gradientColor=none;strokeColor=#232F3E;fillColor=#ffffff;dashed=0;verticalLabelPosition=bottom;verticalAlign=top;align=center;html=1;fontSize=12;fontStyle=0;aspect=fixed;shape=mxgraph.aws4.resourceIcon;resIcon=mxgraph.aws4.aws_cloud;" parent="1" vertex="1">
          <mxGeometry x="1680" y="1145" width="60" height="60" as="geometry" />
        </mxCell>
        <mxCell id="y-JFG-o3m0YFWxHJN8Iu-95" style="edgeStyle=none;rounded=0;orthogonalLoop=1;jettySize=auto;html=1;fontSize=24;fontColor=#006600;startArrow=classic;startFill=1;strokeWidth=5;strokeColor=#006600;" parent="1" target="y-JFG-o3m0YFWxHJN8Iu-18" edge="1">
          <mxGeometry relative="1" as="geometry">
            <mxPoint x="1194" y="277" as="sourcePoint" />
          </mxGeometry>
        </mxCell>
        <mxCell id="y-JFG-o3m0YFWxHJN8Iu-96" style="edgeStyle=none;rounded=0;orthogonalLoop=1;jettySize=auto;html=1;entryX=0.07;entryY=0.478;entryDx=0;entryDy=0;entryPerimeter=0;fontSize=24;fontColor=#006600;startArrow=classic;startFill=1;strokeColor=#E6E6E6;" parent="1" target="y-JFG-o3m0YFWxHJN8Iu-10" edge="1">
          <mxGeometry relative="1" as="geometry">
            <mxPoint x="1194" y="663.25" as="sourcePoint" />
          </mxGeometry>
        </mxCell>
        <mxCell id="y-JFG-o3m0YFWxHJN8Iu-98" style="edgeStyle=none;rounded=0;orthogonalLoop=1;jettySize=auto;html=1;fontSize=24;fontColor=#006600;startArrow=classic;startFill=1;strokeColor=#E6E6E6;" parent="1" target="y-JFG-o3m0YFWxHJN8Iu-26" edge="1">
          <mxGeometry relative="1" as="geometry">
            <mxPoint x="1183.9994459862646" y="1063.6710511736483" as="sourcePoint" />
          </mxGeometry>
        </mxCell>
        <mxCell id="y-JFG-o3m0YFWxHJN8Iu-102" style="edgeStyle=none;rounded=0;orthogonalLoop=1;jettySize=auto;html=1;fontSize=24;fontColor=#006600;startArrow=classic;startFill=1;strokeColor=#E6E6E6;" parent="1" target="y-JFG-o3m0YFWxHJN8Iu-18" edge="1">
          <mxGeometry relative="1" as="geometry">
            <mxPoint x="1194" y="663" as="sourcePoint" />
          </mxGeometry>
        </mxCell>
        <mxCell id="y-JFG-o3m0YFWxHJN8Iu-103" style="edgeStyle=none;rounded=0;orthogonalLoop=1;jettySize=auto;html=1;fontSize=24;fontColor=#006600;startArrow=classic;startFill=1;exitX=1;exitY=0.5;exitDx=0;exitDy=0;strokeColor=#E6E6E6;" parent="1" target="y-JFG-o3m0YFWxHJN8Iu-26" edge="1">
          <mxGeometry relative="1" as="geometry">
            <mxPoint x="1194" y="663.25" as="sourcePoint" />
          </mxGeometry>
        </mxCell>
        <mxCell id="y-JFG-o3m0YFWxHJN8Iu-100" style="edgeStyle=none;rounded=0;orthogonalLoop=1;jettySize=auto;html=1;fontSize=24;fontColor=#006600;startArrow=classic;startFill=1;strokeWidth=5;strokeColor=#006600;" parent="1" target="y-JFG-o3m0YFWxHJN8Iu-10" edge="1">
          <mxGeometry relative="1" as="geometry">
            <mxPoint x="1194" y="277" as="sourcePoint" />
          </mxGeometry>
        </mxCell>
        <mxCell id="y-JFG-o3m0YFWxHJN8Iu-101" style="edgeStyle=none;rounded=0;orthogonalLoop=1;jettySize=auto;html=1;fontSize=24;fontColor=#006600;startArrow=classic;startFill=1;exitX=1;exitY=0.5;exitDx=0;exitDy=0;strokeWidth=5;strokeColor=#006600;" parent="1" target="y-JFG-o3m0YFWxHJN8Iu-26" edge="1">
          <mxGeometry relative="1" as="geometry">
            <mxPoint x="1194" y="277" as="sourcePoint" />
          </mxGeometry>
        </mxCell>
        <mxCell id="y-JFG-o3m0YFWxHJN8Iu-104" style="edgeStyle=none;rounded=0;orthogonalLoop=1;jettySize=auto;html=1;fontSize=24;fontColor=#006600;startArrow=classic;startFill=1;exitX=1;exitY=0.5;exitDx=0;exitDy=0;strokeColor=#E6E6E6;" parent="1" target="y-JFG-o3m0YFWxHJN8Iu-18" edge="1">
          <mxGeometry relative="1" as="geometry">
            <mxPoint x="1184" y="1063.25" as="sourcePoint" />
          </mxGeometry>
        </mxCell>
        <mxCell id="y-JFG-o3m0YFWxHJN8Iu-105" style="edgeStyle=none;rounded=0;orthogonalLoop=1;jettySize=auto;html=1;fontSize=24;fontColor=#006600;startArrow=classic;startFill=1;strokeColor=#E6E6E6;" parent="1" target="y-JFG-o3m0YFWxHJN8Iu-10" edge="1">
          <mxGeometry relative="1" as="geometry">
            <mxPoint x="1184" y="1063" as="sourcePoint" />
          </mxGeometry>
        </mxCell>
        <mxCell id="y-JFG-o3m0YFWxHJN8Iu-107" value="Billing Service&lt;br&gt;Deployment&amp;nbsp;" style="ellipse;whiteSpace=wrap;html=1;aspect=fixed;strokeColor=#CCCCCC;fontSize=15;fontColor=#006600;fillColor=#FFFFFF;" parent="1" vertex="1">
          <mxGeometry x="194.5" y="-310" width="140" height="140" as="geometry" />
        </mxCell>
        <mxCell id="y-JFG-o3m0YFWxHJN8Iu-108" value="Micro Services Deployment" style="ellipse;whiteSpace=wrap;html=1;aspect=fixed;strokeColor=#CCCCCC;fontSize=15;fontColor=#006600;fillColor=#FFFFFF;" parent="1" vertex="1">
          <mxGeometry x="434.5" y="-310" width="140" height="140" as="geometry" />
        </mxCell>
        <mxCell id="y-JFG-o3m0YFWxHJN8Iu-109" value="QA Pipelines (Perf, Sanity Test, ...)" style="ellipse;whiteSpace=wrap;html=1;aspect=fixed;strokeColor=#CCCCCC;fontSize=15;fontColor=#006600;fillColor=#FFFFFF;" parent="1" vertex="1">
          <mxGeometry x="674.5" y="-310" width="140" height="140" as="geometry" />
        </mxCell>
        <mxCell id="y-JFG-o3m0YFWxHJN8Iu-110" value="Services Operation (DB, Kafka, ...)" style="ellipse;whiteSpace=wrap;html=1;aspect=fixed;strokeColor=#CCCCCC;fontSize=15;fontColor=#006600;fillColor=#FFFFFF;" parent="1" vertex="1">
          <mxGeometry x="914.5" y="-310" width="140" height="140" as="geometry" />
        </mxCell>
        <mxCell id="y-JFG-o3m0YFWxHJN8Iu-112" style="edgeStyle=orthogonalEdgeStyle;rounded=0;orthogonalLoop=1;jettySize=auto;html=1;entryX=0.5;entryY=1;entryDx=0;entryDy=0;dashed=1;strokeColor=#CC0000;strokeWidth=1;fontSize=15;fontColor=#006600;startArrow=classic;startFill=1;" parent="1" source="xL3kk872n1nq1PRhkaxr-70" target="y-JFG-o3m0YFWxHJN8Iu-108" edge="1">
          <mxGeometry relative="1" as="geometry">
            <mxPoint x="634.5" y="-30" as="sourcePoint" />
          </mxGeometry>
        </mxCell>
        <mxCell id="y-JFG-o3m0YFWxHJN8Iu-113" style="edgeStyle=orthogonalEdgeStyle;rounded=0;orthogonalLoop=1;jettySize=auto;html=1;entryX=0.5;entryY=1;entryDx=0;entryDy=0;dashed=1;strokeColor=#CC0000;strokeWidth=1;fontSize=15;fontColor=#006600;startArrow=classic;startFill=1;exitX=1;exitY=0.5;exitDx=0;exitDy=0;" parent="1" source="xL3kk872n1nq1PRhkaxr-70" target="y-JFG-o3m0YFWxHJN8Iu-109" edge="1">
          <mxGeometry relative="1" as="geometry">
            <mxPoint x="634.5" y="-30" as="sourcePoint" />
          </mxGeometry>
        </mxCell>
        <mxCell id="y-JFG-o3m0YFWxHJN8Iu-114" style="edgeStyle=orthogonalEdgeStyle;rounded=0;orthogonalLoop=1;jettySize=auto;html=1;entryX=0.5;entryY=1;entryDx=0;entryDy=0;dashed=1;strokeColor=#CC0000;strokeWidth=1;fontSize=15;fontColor=#006600;startArrow=classic;startFill=1;" parent="1" target="y-JFG-o3m0YFWxHJN8Iu-110" edge="1">
          <mxGeometry relative="1" as="geometry">
            <Array as="points">
              <mxPoint x="634.5" y="-100" />
              <mxPoint x="984.5" y="-100" />
            </Array>
            <mxPoint x="634.5" y="-30" as="sourcePoint" />
          </mxGeometry>
        </mxCell>
        <mxCell id="y-JFG-o3m0YFWxHJN8Iu-115" style="edgeStyle=orthogonalEdgeStyle;rounded=0;orthogonalLoop=1;jettySize=auto;html=1;entryX=0.5;entryY=1;entryDx=0;entryDy=0;dashed=1;strokeColor=#CC0000;strokeWidth=1;fontSize=15;fontColor=#006600;startArrow=classic;startFill=1;" parent="1" target="y-JFG-o3m0YFWxHJN8Iu-107" edge="1">
          <mxGeometry relative="1" as="geometry">
            <Array as="points">
              <mxPoint x="634.5" y="-100" />
              <mxPoint x="264.5" y="-100" />
            </Array>
            <mxPoint x="634.5" y="-30" as="sourcePoint" />
          </mxGeometry>
        </mxCell>
        <mxCell id="y-JFG-o3m0YFWxHJN8Iu-116" value="???" style="ellipse;whiteSpace=wrap;html=1;aspect=fixed;strokeColor=#CCCCCC;fontSize=15;fontColor=#006600;fillColor=#FFFFFF;" parent="1" vertex="1">
          <mxGeometry x="1155.5" y="-310" width="140" height="140" as="geometry" />
        </mxCell>
        <mxCell id="y-JFG-o3m0YFWxHJN8Iu-117" style="edgeStyle=orthogonalEdgeStyle;rounded=0;orthogonalLoop=1;jettySize=auto;html=1;entryX=0.5;entryY=1;entryDx=0;entryDy=0;dashed=1;strokeColor=#CC0000;strokeWidth=1;fontSize=15;fontColor=#006600;startArrow=classic;startFill=1;exitX=0.5;exitY=0;exitDx=0;exitDy=0;" parent="1" source="xL3kk872n1nq1PRhkaxr-70" target="y-JFG-o3m0YFWxHJN8Iu-116" edge="1">
          <mxGeometry relative="1" as="geometry">
            <Array as="points">
              <mxPoint x="634" y="-100" />
              <mxPoint x="1226" y="-100" />
            </Array>
            <mxPoint x="634.5" y="-30" as="sourcePoint" />
          </mxGeometry>
        </mxCell>
        <mxCell id="y-JFG-o3m0YFWxHJN8Iu-118" value="" style="shape=umlActor;verticalLabelPosition=bottom;verticalAlign=top;html=1;outlineConnect=0;strokeColor=#000000;fontSize=15;fontColor=#006600;fillColor=#FFFFFF;" parent="1" vertex="1">
          <mxGeometry x="270" y="-10" width="30" height="60" as="geometry" />
        </mxCell>
        <mxCell id="y-JFG-o3m0YFWxHJN8Iu-123" style="rounded=0;orthogonalLoop=1;jettySize=auto;html=1;entryX=0;entryY=0;entryDx=0;entryDy=0;strokeColor=#CC0000;strokeWidth=1;fontSize=15;fontColor=#006600;startArrow=classic;startFill=1;" parent="1" source="y-JFG-o3m0YFWxHJN8Iu-119" edge="1">
          <mxGeometry relative="1" as="geometry">
            <mxPoint x="396.8629150101524" y="70.86291501015239" as="targetPoint" />
          </mxGeometry>
        </mxCell>
        <mxCell id="y-JFG-o3m0YFWxHJN8Iu-119" value="" style="shape=umlActor;verticalLabelPosition=bottom;verticalAlign=top;html=1;outlineConnect=0;strokeColor=#000000;fontSize=15;fontColor=#006600;fillColor=#FFFFFF;" parent="1" vertex="1">
          <mxGeometry x="310" y="7.75" width="30" height="60" as="geometry" />
        </mxCell>
        <mxCell id="y-JFG-o3m0YFWxHJN8Iu-121" value="" style="shape=umlActor;verticalLabelPosition=bottom;verticalAlign=top;html=1;outlineConnect=0;strokeColor=#000000;fontSize=15;fontColor=#006600;fillColor=#FFFFFF;" parent="1" vertex="1">
          <mxGeometry x="419.5" y="-90" width="30" height="60" as="geometry" />
        </mxCell>
        <mxCell id="y-JFG-o3m0YFWxHJN8Iu-124" value="Team A" style="text;html=1;align=center;verticalAlign=middle;resizable=0;points=[];autosize=1;strokeColor=none;fillColor=none;fontSize=15;fontColor=#006600;" parent="1" vertex="1">
          <mxGeometry x="255" y="50" width="70" height="30" as="geometry" />
        </mxCell>
        <mxCell id="pQ2rmvkzfnEfF8V7h_pf-11" style="edgeStyle=orthogonalEdgeStyle;rounded=0;orthogonalLoop=1;jettySize=auto;html=1;" parent="1" source="y-JFG-o3m0YFWxHJN8Iu-125" edge="1">
          <mxGeometry relative="1" as="geometry">
            <mxPoint x="95" y="410" as="targetPoint" />
          </mxGeometry>
        </mxCell>
        <mxCell id="y-JFG-o3m0YFWxHJN8Iu-125" value="Tools Team" style="shape=umlActor;verticalLabelPosition=bottom;verticalAlign=top;html=1;outlineConnect=0;strokeColor=#000000;fontSize=15;fontColor=#006600;fillColor=#FFFFFF;" parent="1" vertex="1">
          <mxGeometry x="80" y="251" width="30" height="60" as="geometry" />
        </mxCell>
        <mxCell id="y-JFG-o3m0YFWxHJN8Iu-140" value="" style="sketch=0;aspect=fixed;pointerEvents=1;shadow=0;dashed=0;html=1;strokeColor=none;labelPosition=center;verticalLabelPosition=bottom;verticalAlign=top;align=center;fillColor=#00188D;shape=mxgraph.mscae.enterprise.tool;fontSize=15;fontColor=#CCCCCC;" parent="1" vertex="1">
          <mxGeometry x="350" y="254" width="22.22" height="20" as="geometry" />
        </mxCell>
        <mxCell id="y-JFG-o3m0YFWxHJN8Iu-142" value="" style="shape=image;html=1;verticalAlign=top;verticalLabelPosition=bottom;labelBackgroundColor=#ffffff;imageAspect=0;aspect=fixed;image=https://cdn3.iconfinder.com/data/icons/lynx/16x16/places/gnome-fs-ssh.png;strokeColor=#000000;fontSize=15;fontColor=#CCCCCC;fillColor=#E6E6E6;" parent="1" vertex="1">
          <mxGeometry x="320" y="251" width="20" height="20" as="geometry" />
        </mxCell>
        <mxCell id="y-JFG-o3m0YFWxHJN8Iu-145" style="edgeStyle=none;rounded=0;orthogonalLoop=1;jettySize=auto;html=1;entryX=0.5;entryY=0;entryDx=0;entryDy=0;entryPerimeter=0;strokeColor=#FF0000;strokeWidth=1;fontSize=15;fontColor=none;startArrow=classic;startFill=1;dashed=1;endArrow=none;endFill=0;" parent="1" source="y-JFG-o3m0YFWxHJN8Iu-144" target="y-JFG-o3m0YFWxHJN8Iu-125" edge="1">
          <mxGeometry relative="1" as="geometry" />
        </mxCell>
        <mxCell id="y-JFG-o3m0YFWxHJN8Iu-144" value="&lt;ul&gt;&lt;li&gt;&lt;span style=&quot;background-color: initial;&quot;&gt;Click button?&amp;nbsp;&lt;/span&gt;&lt;br&gt;&lt;/li&gt;&lt;li&gt;Available ?&lt;/li&gt;&lt;li&gt;...&lt;/li&gt;&lt;/ul&gt;" style="shape=callout;whiteSpace=wrap;html=1;perimeter=calloutPerimeter;strokeColor=#000000;fontSize=15;fontColor=none;fillColor=none;align=left;" parent="1" vertex="1">
          <mxGeometry x="-90" y="-10" width="210" height="150" as="geometry" />
        </mxCell>
        <mxCell id="y-JFG-o3m0YFWxHJN8Iu-147" style="edgeStyle=none;rounded=0;orthogonalLoop=1;jettySize=auto;html=1;entryX=0;entryY=0.3333333333333333;entryDx=0;entryDy=0;entryPerimeter=0;strokeColor=#FF0000;strokeWidth=1;fontSize=15;fontColor=none;startArrow=classic;startFill=1;dashed=1;endArrow=none;endFill=0;" parent="1" target="y-JFG-o3m0YFWxHJN8Iu-118" edge="1">
          <mxGeometry relative="1" as="geometry">
            <mxPoint x="160" y="49.487179487179674" as="sourcePoint" />
          </mxGeometry>
        </mxCell>
        <mxCell id="y-JFG-o3m0YFWxHJN8Iu-146" value="&lt;ul&gt;&lt;li&gt;&lt;strike&gt;Production patch ?&lt;/strike&gt;&lt;/li&gt;&lt;li&gt;&lt;strike&gt;Operation ?&amp;nbsp;&lt;br&gt;&lt;/strike&gt;&lt;/li&gt;&lt;li&gt;&lt;strike&gt;call P0 ?&lt;/strike&gt;&lt;/li&gt;&lt;/ul&gt;" style="shape=callout;whiteSpace=wrap;html=1;perimeter=calloutPerimeter;strokeColor=#000000;fontSize=15;fontColor=none;fillColor=none;align=left;" parent="1" vertex="1">
          <mxGeometry x="210" y="133" width="170" height="116" as="geometry" />
        </mxCell>
        <mxCell id="pQ2rmvkzfnEfF8V7h_pf-2" value="" style="shape=image;html=1;verticalAlign=top;verticalLabelPosition=bottom;labelBackgroundColor=#ffffff;imageAspect=0;aspect=fixed;image=https://cdn3.iconfinder.com/data/icons/flat-actions-icons-9/792/Tick_Mark_Dark-128.png" parent="1" vertex="1">
          <mxGeometry x="410" y="436.25" width="70" height="70" as="geometry" />
        </mxCell>
        <mxCell id="pQ2rmvkzfnEfF8V7h_pf-3" value="" style="shape=image;html=1;verticalAlign=top;verticalLabelPosition=bottom;labelBackgroundColor=#ffffff;imageAspect=0;aspect=fixed;image=https://cdn3.iconfinder.com/data/icons/flat-actions-icons-9/792/Tick_Mark_Dark-128.png" parent="1" vertex="1">
          <mxGeometry x="400" y="612.75" width="70" height="70" as="geometry" />
        </mxCell>
        <mxCell id="pQ2rmvkzfnEfF8V7h_pf-4" value="" style="shape=image;html=1;verticalAlign=top;verticalLabelPosition=bottom;labelBackgroundColor=#ffffff;imageAspect=0;aspect=fixed;image=https://cdn3.iconfinder.com/data/icons/flat-actions-icons-9/792/Tick_Mark_Dark-128.png" parent="1" vertex="1">
          <mxGeometry x="425" y="880" width="70" height="70" as="geometry" />
        </mxCell>
        <mxCell id="pQ2rmvkzfnEfF8V7h_pf-5" value="" style="shape=document;whiteSpace=wrap;html=1;boundedLbl=1;" parent="1" vertex="1">
          <mxGeometry x="50" y="416" width="80" height="44" as="geometry" />
        </mxCell>
        <mxCell id="pQ2rmvkzfnEfF8V7h_pf-6" value="" style="shape=document;whiteSpace=wrap;html=1;boundedLbl=1;" parent="1" vertex="1">
          <mxGeometry x="60" y="426" width="80" height="44" as="geometry" />
        </mxCell>
        <mxCell id="pQ2rmvkzfnEfF8V7h_pf-7" value="" style="shape=document;whiteSpace=wrap;html=1;boundedLbl=1;" parent="1" vertex="1">
          <mxGeometry x="70" y="436" width="80" height="44" as="geometry" />
        </mxCell>
        <mxCell id="pQ2rmvkzfnEfF8V7h_pf-8" value="" style="shape=document;whiteSpace=wrap;html=1;boundedLbl=1;" parent="1" vertex="1">
          <mxGeometry x="80" y="446" width="80" height="44" as="geometry" />
        </mxCell>
        <mxCell id="pQ2rmvkzfnEfF8V7h_pf-9" value="" style="shape=document;whiteSpace=wrap;html=1;boundedLbl=1;" parent="1" vertex="1">
          <mxGeometry x="90" y="456" width="80" height="44" as="geometry" />
        </mxCell>
        <mxCell id="pQ2rmvkzfnEfF8V7h_pf-12" style="edgeStyle=orthogonalEdgeStyle;rounded=0;orthogonalLoop=1;jettySize=auto;html=1;entryX=0.5;entryY=0;entryDx=0;entryDy=0;" parent="1" source="pQ2rmvkzfnEfF8V7h_pf-10" target="y-JFG-o3m0YFWxHJN8Iu-2" edge="1">
          <mxGeometry relative="1" as="geometry">
            <Array as="points">
              <mxPoint x="110" y="540" />
              <mxPoint x="110" y="540" />
            </Array>
          </mxGeometry>
        </mxCell>
        <mxCell id="pQ2rmvkzfnEfF8V7h_pf-10" value="" style="shape=document;whiteSpace=wrap;html=1;boundedLbl=1;" parent="1" vertex="1">
          <mxGeometry x="100" y="466" width="80" height="44" as="geometry" />
        </mxCell>
        <mxCell id="pQ2rmvkzfnEfF8V7h_pf-15" style="rounded=0;orthogonalLoop=1;jettySize=auto;html=1;entryX=0;entryY=0.5;entryDx=0;entryDy=0;startArrow=classic;startFill=1;endArrow=none;endFill=0;dashed=1;strokeColor=#CC0000;" parent="1" source="pQ2rmvkzfnEfF8V7h_pf-14" target="pQ2rmvkzfnEfF8V7h_pf-5" edge="1">
          <mxGeometry relative="1" as="geometry" />
        </mxCell>
        <mxCell id="pQ2rmvkzfnEfF8V7h_pf-14" value="&lt;ul&gt;&lt;li&gt;Knowledge -&amp;gt; Playbook ...&lt;/li&gt;&lt;/ul&gt;" style="shape=callout;whiteSpace=wrap;html=1;perimeter=calloutPerimeter;strokeColor=#000000;fontSize=15;fontColor=none;fillColor=none;align=left;" parent="1" vertex="1">
          <mxGeometry x="-270" y="290" width="190" height="111" as="geometry" />
        </mxCell>
        <mxCell id="y-JFG-o3m0YFWxHJN8Iu-130" value="UI" style="text;html=1;align=center;verticalAlign=middle;resizable=0;points=[];autosize=1;strokeColor=none;fillColor=none;fontSize=15;fontColor=#006600;" parent="1" vertex="1">
          <mxGeometry x="370" y="23" width="40" height="30" as="geometry" />
        </mxCell>
        <mxCell id="xL3kk872n1nq1PRhkaxr-18" style="rounded=0;orthogonalLoop=1;jettySize=auto;html=1;entryX=0;entryY=0.5;entryDx=0;entryDy=0;strokeColor=#CC0000;strokeWidth=5;" parent="1" source="xL3kk872n1nq1PRhkaxr-3" target="xL3kk872n1nq1PRhkaxr-15" edge="1">
          <mxGeometry relative="1" as="geometry" />
        </mxCell>
        <mxCell id="xL3kk872n1nq1PRhkaxr-30" style="rounded=0;orthogonalLoop=1;jettySize=auto;html=1;entryX=1;entryY=0.5;entryDx=0;entryDy=0;strokeColor=#006600;strokeWidth=5;" parent="1" source="xL3kk872n1nq1PRhkaxr-6" target="xL3kk872n1nq1PRhkaxr-27" edge="1">
          <mxGeometry relative="1" as="geometry">
            <mxPoint x="740" y="290" as="targetPoint" />
          </mxGeometry>
        </mxCell>
        <mxCell id="xL3kk872n1nq1PRhkaxr-6" value="Slave Pod&amp;nbsp; 2" style="rounded=1;whiteSpace=wrap;html=1;" parent="1" vertex="1">
          <mxGeometry x="1084" y="251" width="120" height="60" as="geometry" />
        </mxCell>
        <mxCell id="xL3kk872n1nq1PRhkaxr-31" style="rounded=0;orthogonalLoop=1;jettySize=auto;html=1;entryX=1;entryY=0.5;entryDx=0;entryDy=0;strokeColor=#006600;strokeWidth=5;" parent="1" source="xL3kk872n1nq1PRhkaxr-7" target="xL3kk872n1nq1PRhkaxr-27" edge="1">
          <mxGeometry relative="1" as="geometry" />
        </mxCell>
        <mxCell id="xL3kk872n1nq1PRhkaxr-7" value="Slave Pod&amp;nbsp; 3" style="rounded=1;whiteSpace=wrap;html=1;" parent="1" vertex="1">
          <mxGeometry x="1084" y="341" width="120" height="60" as="geometry" />
        </mxCell>
        <mxCell id="xL3kk872n1nq1PRhkaxr-29" style="rounded=0;orthogonalLoop=1;jettySize=auto;html=1;entryX=1;entryY=0.5;entryDx=0;entryDy=0;strokeColor=#006600;strokeWidth=5;" parent="1" source="xL3kk872n1nq1PRhkaxr-8" target="xL3kk872n1nq1PRhkaxr-27" edge="1">
          <mxGeometry relative="1" as="geometry" />
        </mxCell>
        <mxCell id="xL3kk872n1nq1PRhkaxr-8" value="Slave Pod&amp;nbsp; 1" style="rounded=1;whiteSpace=wrap;html=1;" parent="1" vertex="1">
          <mxGeometry x="1084" y="162" width="120" height="60" as="geometry" />
        </mxCell>
        <mxCell id="xL3kk872n1nq1PRhkaxr-63" style="edgeStyle=none;rounded=0;orthogonalLoop=1;jettySize=auto;html=1;entryX=1;entryY=0.5;entryDx=0;entryDy=0;strokeColor=#B3B3B3;" parent="1" source="xL3kk872n1nq1PRhkaxr-9" target="xL3kk872n1nq1PRhkaxr-42" edge="1">
          <mxGeometry relative="1" as="geometry">
            <mxPoint x="780" y="710" as="targetPoint" />
          </mxGeometry>
        </mxCell>
        <mxCell id="xL3kk872n1nq1PRhkaxr-9" value="Slave Pod&amp;nbsp; 2" style="rounded=1;whiteSpace=wrap;html=1;strokeColor=#E6E6E6;fontColor=#666666;" parent="1" vertex="1">
          <mxGeometry x="1074" y="638.5" width="120" height="60" as="geometry" />
        </mxCell>
        <mxCell id="xL3kk872n1nq1PRhkaxr-65" style="edgeStyle=none;rounded=0;orthogonalLoop=1;jettySize=auto;html=1;entryX=1;entryY=0.5;entryDx=0;entryDy=0;strokeColor=#B3B3B3;" parent="1" source="xL3kk872n1nq1PRhkaxr-10" target="xL3kk872n1nq1PRhkaxr-42" edge="1">
          <mxGeometry relative="1" as="geometry" />
        </mxCell>
        <mxCell id="xL3kk872n1nq1PRhkaxr-10" value="Slave Pod&amp;nbsp; 3" style="rounded=1;whiteSpace=wrap;html=1;strokeColor=#E6E6E6;fontColor=#666666;" parent="1" vertex="1">
          <mxGeometry x="1074" y="728.5" width="120" height="60" as="geometry" />
        </mxCell>
        <mxCell id="xL3kk872n1nq1PRhkaxr-54" style="edgeStyle=none;rounded=0;orthogonalLoop=1;jettySize=auto;html=1;entryX=1;entryY=0.5;entryDx=0;entryDy=0;strokeColor=#B3B3B3;" parent="1" source="xL3kk872n1nq1PRhkaxr-11" target="xL3kk872n1nq1PRhkaxr-42" edge="1">
          <mxGeometry relative="1" as="geometry">
            <mxPoint x="760" y="680" as="targetPoint" />
          </mxGeometry>
        </mxCell>
        <mxCell id="xL3kk872n1nq1PRhkaxr-11" value="Slave Pod&amp;nbsp; 1" style="rounded=1;whiteSpace=wrap;html=1;strokeColor=#E6E6E6;fontColor=#666666;" parent="1" vertex="1">
          <mxGeometry x="1074" y="549.5" width="120" height="60" as="geometry" />
        </mxCell>
        <mxCell id="xL3kk872n1nq1PRhkaxr-67" style="edgeStyle=none;rounded=0;orthogonalLoop=1;jettySize=auto;html=1;entryX=1;entryY=0.5;entryDx=0;entryDy=0;strokeColor=#B3B3B3;" parent="1" source="xL3kk872n1nq1PRhkaxr-12" target="xL3kk872n1nq1PRhkaxr-46" edge="1">
          <mxGeometry relative="1" as="geometry">
            <mxPoint x="670" y="1090" as="targetPoint" />
          </mxGeometry>
        </mxCell>
        <mxCell id="xL3kk872n1nq1PRhkaxr-12" value="Slave Pod&amp;nbsp; 2" style="rounded=1;whiteSpace=wrap;html=1;strokeColor=#E6E6E6;fontColor=#666666;" parent="1" vertex="1">
          <mxGeometry x="1064" y="1035.5" width="120" height="60" as="geometry" />
        </mxCell>
        <mxCell id="xL3kk872n1nq1PRhkaxr-68" style="edgeStyle=none;rounded=0;orthogonalLoop=1;jettySize=auto;html=1;entryX=1;entryY=0.5;entryDx=0;entryDy=0;strokeColor=#B3B3B3;" parent="1" source="xL3kk872n1nq1PRhkaxr-13" target="xL3kk872n1nq1PRhkaxr-46" edge="1">
          <mxGeometry relative="1" as="geometry" />
        </mxCell>
        <mxCell id="xL3kk872n1nq1PRhkaxr-13" value="Slave Pod&amp;nbsp; 3" style="rounded=1;whiteSpace=wrap;html=1;strokeColor=#E6E6E6;fontColor=#666666;" parent="1" vertex="1">
          <mxGeometry x="1064" y="1125.5" width="120" height="60" as="geometry" />
        </mxCell>
        <mxCell id="xL3kk872n1nq1PRhkaxr-66" style="edgeStyle=none;rounded=0;orthogonalLoop=1;jettySize=auto;html=1;entryX=1;entryY=0.5;entryDx=0;entryDy=0;strokeColor=#B3B3B3;" parent="1" source="xL3kk872n1nq1PRhkaxr-14" target="xL3kk872n1nq1PRhkaxr-46" edge="1">
          <mxGeometry relative="1" as="geometry" />
        </mxCell>
        <mxCell id="xL3kk872n1nq1PRhkaxr-14" value="Slave Pod&amp;nbsp; 1" style="rounded=1;whiteSpace=wrap;html=1;strokeColor=#E6E6E6;fontColor=#666666;" parent="1" vertex="1">
          <mxGeometry x="1064" y="946.5" width="120" height="60" as="geometry" />
        </mxCell>
        <mxCell id="xL3kk872n1nq1PRhkaxr-19" style="rounded=0;orthogonalLoop=1;jettySize=auto;html=1;entryX=0;entryY=0.5;entryDx=0;entryDy=0;exitX=1;exitY=0.5;exitDx=0;exitDy=0;strokeColor=#B5739D;strokeWidth=5;" parent="1" source="xL3kk872n1nq1PRhkaxr-15" target="xL3kk872n1nq1PRhkaxr-7" edge="1">
          <mxGeometry relative="1" as="geometry" />
        </mxCell>
        <mxCell id="xL3kk872n1nq1PRhkaxr-20" style="rounded=0;orthogonalLoop=1;jettySize=auto;html=1;entryX=0;entryY=0.5;entryDx=0;entryDy=0;exitX=1;exitY=0.5;exitDx=0;exitDy=0;strokeColor=#B5739D;strokeWidth=5;" parent="1" source="xL3kk872n1nq1PRhkaxr-15" target="xL3kk872n1nq1PRhkaxr-6" edge="1">
          <mxGeometry relative="1" as="geometry" />
        </mxCell>
        <mxCell id="xL3kk872n1nq1PRhkaxr-21" style="rounded=0;orthogonalLoop=1;jettySize=auto;html=1;entryX=0;entryY=0.5;entryDx=0;entryDy=0;exitX=1;exitY=0.5;exitDx=0;exitDy=0;strokeColor=#B5739D;strokeWidth=5;" parent="1" source="xL3kk872n1nq1PRhkaxr-15" target="xL3kk872n1nq1PRhkaxr-8" edge="1">
          <mxGeometry relative="1" as="geometry" />
        </mxCell>
        <mxCell id="xL3kk872n1nq1PRhkaxr-48" style="rounded=0;orthogonalLoop=1;jettySize=auto;html=1;entryX=0;entryY=0.5;entryDx=0;entryDy=0;exitX=1;exitY=0.5;exitDx=0;exitDy=0;strokeColor=#B3B3B3;" parent="1" source="xL3kk872n1nq1PRhkaxr-15" target="xL3kk872n1nq1PRhkaxr-11" edge="1">
          <mxGeometry relative="1" as="geometry" />
        </mxCell>
        <mxCell id="xL3kk872n1nq1PRhkaxr-49" style="rounded=0;orthogonalLoop=1;jettySize=auto;html=1;entryX=0;entryY=0.5;entryDx=0;entryDy=0;exitX=1;exitY=0.5;exitDx=0;exitDy=0;strokeColor=#B3B3B3;" parent="1" source="xL3kk872n1nq1PRhkaxr-15" target="xL3kk872n1nq1PRhkaxr-9" edge="1">
          <mxGeometry relative="1" as="geometry" />
        </mxCell>
        <mxCell id="xL3kk872n1nq1PRhkaxr-50" style="rounded=0;orthogonalLoop=1;jettySize=auto;html=1;entryX=0;entryY=0.5;entryDx=0;entryDy=0;exitX=1;exitY=0.5;exitDx=0;exitDy=0;strokeColor=#B3B3B3;" parent="1" source="xL3kk872n1nq1PRhkaxr-15" target="xL3kk872n1nq1PRhkaxr-10" edge="1">
          <mxGeometry relative="1" as="geometry" />
        </mxCell>
        <mxCell id="xL3kk872n1nq1PRhkaxr-51" style="rounded=0;orthogonalLoop=1;jettySize=auto;html=1;entryX=0;entryY=0.5;entryDx=0;entryDy=0;exitX=1;exitY=0.5;exitDx=0;exitDy=0;strokeColor=#B3B3B3;" parent="1" source="xL3kk872n1nq1PRhkaxr-15" target="xL3kk872n1nq1PRhkaxr-14" edge="1">
          <mxGeometry relative="1" as="geometry" />
        </mxCell>
        <mxCell id="xL3kk872n1nq1PRhkaxr-52" style="rounded=0;orthogonalLoop=1;jettySize=auto;html=1;entryX=0;entryY=0.5;entryDx=0;entryDy=0;exitX=1.012;exitY=0.617;exitDx=0;exitDy=0;exitPerimeter=0;strokeColor=#B3B3B3;" parent="1" source="xL3kk872n1nq1PRhkaxr-15" target="xL3kk872n1nq1PRhkaxr-12" edge="1">
          <mxGeometry relative="1" as="geometry" />
        </mxCell>
        <mxCell id="xL3kk872n1nq1PRhkaxr-53" style="rounded=0;orthogonalLoop=1;jettySize=auto;html=1;entryX=0;entryY=0.5;entryDx=0;entryDy=0;exitX=1;exitY=0.5;exitDx=0;exitDy=0;strokeColor=#B3B3B3;" parent="1" source="xL3kk872n1nq1PRhkaxr-15" target="xL3kk872n1nq1PRhkaxr-13" edge="1">
          <mxGeometry relative="1" as="geometry" />
        </mxCell>
        <mxCell id="xL3kk872n1nq1PRhkaxr-15" value="Kube ApiSserver" style="rounded=1;whiteSpace=wrap;html=1;" parent="1" vertex="1">
          <mxGeometry x="825" y="480" width="120" height="60" as="geometry" />
        </mxCell>
        <mxCell id="xL3kk872n1nq1PRhkaxr-32" value="REST Api Call" style="text;html=1;align=center;verticalAlign=middle;resizable=0;points=[];autosize=1;strokeColor=none;fillColor=none;fontSize=14;fontStyle=1" parent="1" vertex="1">
          <mxGeometry x="640" y="386" width="120" height="30" as="geometry" />
        </mxCell>
        <mxCell id="xL3kk872n1nq1PRhkaxr-33" value="Launch Pod in Worker Nodes" style="text;html=1;align=center;verticalAlign=middle;resizable=0;points=[];autosize=1;strokeColor=none;fillColor=none;fontSize=14;fontStyle=1" parent="1" vertex="1">
          <mxGeometry x="930" y="440" width="220" height="30" as="geometry" />
        </mxCell>
        <mxCell id="xL3kk872n1nq1PRhkaxr-34" value="JNLP Call" style="text;html=1;align=center;verticalAlign=middle;resizable=0;points=[];autosize=1;strokeColor=none;fillColor=none;fontSize=14;fontStyle=1" parent="1" vertex="1">
          <mxGeometry x="765" y="215" width="90" height="30" as="geometry" />
        </mxCell>
        <mxCell id="xL3kk872n1nq1PRhkaxr-36" value="Jenkins kuberlete plugin" style="text;html=1;align=center;verticalAlign=middle;resizable=0;points=[];autosize=1;strokeColor=none;fillColor=none;fontSize=14;fontStyle=1" parent="1" vertex="1">
          <mxGeometry x="650" y="300" width="190" height="30" as="geometry" />
        </mxCell>
        <mxCell id="xL3kk872n1nq1PRhkaxr-37" value="JNLP port" style="text;html=1;align=center;verticalAlign=middle;resizable=0;points=[];autosize=1;strokeColor=none;fillColor=none;fontSize=14;fontStyle=1" parent="1" vertex="1">
          <mxGeometry x="647.75" y="222" width="90" height="30" as="geometry" />
        </mxCell>
        <mxCell id="xL3kk872n1nq1PRhkaxr-38" value="" style="group" parent="1" vertex="1" connectable="0">
          <mxGeometry x="560" y="253.75" width="122.25" height="60" as="geometry" />
        </mxCell>
        <mxCell id="y-JFG-o3m0YFWxHJN8Iu-3" value="Jenkins Master&lt;br&gt;(Team A)" style="rounded=1;whiteSpace=wrap;html=1;" parent="xL3kk872n1nq1PRhkaxr-38" vertex="1">
          <mxGeometry width="120" height="60" as="geometry" />
        </mxCell>
        <mxCell id="xL3kk872n1nq1PRhkaxr-3" value="P" style="ellipse;whiteSpace=wrap;html=1;aspect=fixed;" parent="xL3kk872n1nq1PRhkaxr-38" vertex="1">
          <mxGeometry x="95" y="30" width="27.25" height="27.25" as="geometry" />
        </mxCell>
        <mxCell id="xL3kk872n1nq1PRhkaxr-27" value="J" style="rhombus;whiteSpace=wrap;html=1;" parent="xL3kk872n1nq1PRhkaxr-38" vertex="1">
          <mxGeometry x="92.75" y="0.25" width="27.25" height="27.25" as="geometry" />
        </mxCell>
        <mxCell id="xL3kk872n1nq1PRhkaxr-40" value="Jenkins Master&lt;br&gt;(Team B)" style="rounded=1;whiteSpace=wrap;html=1;strokeColor=#E6E6E6;fontColor=#666666;" parent="1" vertex="1">
          <mxGeometry x="553" y="644" width="120" height="60" as="geometry" />
        </mxCell>
        <mxCell id="xL3kk872n1nq1PRhkaxr-61" style="edgeStyle=none;rounded=0;orthogonalLoop=1;jettySize=auto;html=1;entryX=0;entryY=0.5;entryDx=0;entryDy=0;strokeColor=#B3B3B3;" parent="1" source="xL3kk872n1nq1PRhkaxr-41" target="xL3kk872n1nq1PRhkaxr-15" edge="1">
          <mxGeometry relative="1" as="geometry" />
        </mxCell>
        <mxCell id="xL3kk872n1nq1PRhkaxr-41" value="P" style="ellipse;whiteSpace=wrap;html=1;aspect=fixed;strokeColor=#E6E6E6;fontColor=#666666;" parent="1" vertex="1">
          <mxGeometry x="650" y="644.5" width="27.25" height="27.25" as="geometry" />
        </mxCell>
        <mxCell id="xL3kk872n1nq1PRhkaxr-42" value="J" style="rhombus;whiteSpace=wrap;html=1;" parent="1" vertex="1">
          <mxGeometry x="650" y="676.75" width="27.25" height="27.25" as="geometry" />
        </mxCell>
        <mxCell id="xL3kk872n1nq1PRhkaxr-46" value="J" style="rhombus;whiteSpace=wrap;html=1;strokeColor=#E6E6E6;fontColor=#666666;" parent="1" vertex="1">
          <mxGeometry x="642.75" y="1071" width="27.25" height="27.25" as="geometry" />
        </mxCell>
        <mxCell id="xL3kk872n1nq1PRhkaxr-62" style="edgeStyle=none;rounded=0;orthogonalLoop=1;jettySize=auto;html=1;entryX=0;entryY=0.5;entryDx=0;entryDy=0;strokeColor=#B3B3B3;" parent="1" source="xL3kk872n1nq1PRhkaxr-45" target="xL3kk872n1nq1PRhkaxr-15" edge="1">
          <mxGeometry relative="1" as="geometry" />
        </mxCell>
        <mxCell id="xL3kk872n1nq1PRhkaxr-45" value="P" style="ellipse;whiteSpace=wrap;html=1;aspect=fixed;strokeColor=#E6E6E6;fontColor=#666666;" parent="1" vertex="1">
          <mxGeometry x="641.62" y="1037" width="27.25" height="27.25" as="geometry" />
        </mxCell>
        <mxCell id="xL3kk872n1nq1PRhkaxr-71" value="" style="edgeStyle=orthogonalEdgeStyle;rounded=0;orthogonalLoop=1;jettySize=auto;html=1;entryX=0.5;entryY=1;entryDx=0;entryDy=0;dashed=1;strokeColor=#CC0000;strokeWidth=1;fontSize=15;fontColor=#006600;startArrow=classic;startFill=1;" parent="1" target="xL3kk872n1nq1PRhkaxr-70" edge="1">
          <mxGeometry relative="1" as="geometry">
            <mxPoint x="634.5" y="-30" as="sourcePoint" />
            <mxPoint x="505" y="-170" as="targetPoint" />
          </mxGeometry>
        </mxCell>
        <mxCell id="xL3kk872n1nq1PRhkaxr-70" value="" style="ellipse;whiteSpace=wrap;html=1;aspect=fixed;" parent="1" vertex="1">
          <mxGeometry x="620.5" y="-37.25" width="27.25" height="27.25" as="geometry" />
        </mxCell>
        <mxCell id="xL3kk872n1nq1PRhkaxr-76" value="" style="endArrow=none;dashed=1;html=1;dashPattern=1 3;strokeWidth=2;rounded=0;strokeColor=#660000;" parent="1" edge="1">
          <mxGeometry width="50" height="50" relative="1" as="geometry">
            <mxPoint x="1320" y="1233" as="sourcePoint" />
            <mxPoint x="1320" y="23" as="targetPoint" />
          </mxGeometry>
        </mxCell>
        <mxCell id="xL3kk872n1nq1PRhkaxr-77" value="" style="endArrow=classic;dashed=1;html=1;dashPattern=1 3;strokeWidth=2;rounded=0;startArrow=classic;startFill=1;endFill=1;strokeColor=#660000;" parent="1" edge="1">
          <mxGeometry width="50" height="50" relative="1" as="geometry">
            <mxPoint x="810" y="64.5" as="sourcePoint" />
            <mxPoint x="1270" y="64.5" as="targetPoint" />
          </mxGeometry>
        </mxCell>
        <mxCell id="xL3kk872n1nq1PRhkaxr-78" value="" style="endArrow=classic;dashed=1;html=1;dashPattern=1 3;strokeWidth=2;rounded=0;startArrow=classic;startFill=1;endFill=1;strokeColor=#660000;" parent="1" edge="1">
          <mxGeometry width="50" height="50" relative="1" as="geometry">
            <mxPoint x="780" y="1210" as="sourcePoint" />
            <mxPoint x="1240" y="1210" as="targetPoint" />
          </mxGeometry>
        </mxCell>
        <mxCell id="dcLgpgKGVdjkDSoilF9P-9" style="edgeStyle=none;rounded=0;orthogonalLoop=1;jettySize=auto;html=1;entryX=0;entryY=0.5;entryDx=0;entryDy=0;dashed=1;strokeColor=#006600;" edge="1" parent="1" source="xL3kk872n1nq1PRhkaxr-79" target="dcLgpgKGVdjkDSoilF9P-6">
          <mxGeometry relative="1" as="geometry" />
        </mxCell>
        <mxCell id="xL3kk872n1nq1PRhkaxr-79" value="Kubernetes Cluster (Jenkins Build Tools)" style="text;html=1;align=center;verticalAlign=middle;resizable=0;points=[];autosize=1;strokeColor=none;fillColor=none;fontSize=16;fontStyle=1" parent="1" vertex="1">
          <mxGeometry x="870" y="23" width="340" height="30" as="geometry" />
        </mxCell>
        <mxCell id="dcLgpgKGVdjkDSoilF9P-2" value="" style="shape=image;html=1;verticalAlign=top;verticalLabelPosition=bottom;labelBackgroundColor=#ffffff;imageAspect=0;aspect=fixed;image=https://cdn0.iconfinder.com/data/icons/social-media-2104/24/social_media_social_media_logo_docker-128.png" vertex="1" parent="1">
          <mxGeometry x="1622" y="-55" width="78" height="78" as="geometry" />
        </mxCell>
        <mxCell id="dcLgpgKGVdjkDSoilF9P-3" value="" style="shape=image;html=1;verticalAlign=top;verticalLabelPosition=bottom;labelBackgroundColor=#ffffff;imageAspect=0;aspect=fixed;image=https://cdn1.iconfinder.com/data/icons/icons-for-a-site-1/64/advantage_speed-128.png" vertex="1" parent="1">
          <mxGeometry x="1525" y="-133" width="78" height="78" as="geometry" />
        </mxCell>
        <mxCell id="dcLgpgKGVdjkDSoilF9P-7" value="" style="image;aspect=fixed;html=1;points=[];align=center;fontSize=12;image=img/lib/azure2/compute/Maintenance_Configuration.svg;" vertex="1" parent="1">
          <mxGeometry x="1671" y="-144.7" width="78" height="73.41" as="geometry" />
        </mxCell>
        <mxCell id="dcLgpgKGVdjkDSoilF9P-8" value="" style="image;html=1;image=img/lib/clip_art/finance/Dollar_128x128.png" vertex="1" parent="1">
          <mxGeometry x="1587" y="-230" width="78" height="78" as="geometry" />
        </mxCell>
        <mxCell id="dcLgpgKGVdjkDSoilF9P-10" value="&lt;ul&gt;&lt;li&gt;Save a lot of money (existing, pod by request)&lt;/li&gt;&lt;li&gt;Reduce headache from AWS headache.&lt;/li&gt;&lt;li&gt;Build faster and more efficient.&lt;/li&gt;&lt;li&gt;Container and local image cache.&lt;/li&gt;&lt;li&gt;More stable, less maintenance cost&amp;nbsp;&lt;/li&gt;&lt;/ul&gt;" style="shape=callout;whiteSpace=wrap;html=1;perimeter=calloutPerimeter;strokeColor=#000000;fontSize=15;fontColor=none;fillColor=none;align=left;" vertex="1" parent="1">
          <mxGeometry x="1795" y="-560" width="290" height="230" as="geometry" />
        </mxCell>
      </root>
    </mxGraphModel>
  </diagram>
</mxfile>
